<svg width="192" height="192" viewBox="0 0 192 192" fill="none" xmlns="http://www.w3.org/2000/svg">
  <!-- Background Circle -->
  <circle cx="96" cy="96" r="96" fill="#2563eb"/>
  
  <!-- Robot Head -->
  <rect x="72" y="56" width="48" height="40" rx="8" fill="white"/>
  
  <!-- Eyes -->
  <circle cx="84" cy="72" r="4" fill="#2563eb"/>
  <circle cx="108" cy="72" r="4" fill="#2563eb"/>
  
  <!-- Mouth -->
  <rect x="88" y="82" width="16" height="2" rx="1" fill="#2563eb"/>
  
  <!-- Robot Body -->
  <rect x="64" y="96" width="64" height="48" rx="8" fill="white"/>
  
  <!-- Control Panel -->
  <rect x="76" y="108" width="40" height="24" rx="4" fill="#2563eb"/>
  <circle cx="86" cy="118" r="2" fill="white"/>
  <circle cx="106" cy="118" r="2" fill="white"/>
  <rect x="92" y="124" width="8" height="2" rx="1" fill="white"/>
  
  <!-- Arms -->
  <rect x="48" y="104" width="16" height="8" rx="4" fill="white"/>
  <rect x="128" y="104" width="16" height="8" rx="4" fill="white"/>
  
  <!-- Hands -->
  <circle cx="48" cy="108" r="6" fill="#f59e0b"/>
  <circle cx="144" cy="108" r="6" fill="#f59e0b"/>
  
  <!-- Legs -->
  <rect x="80" y="144" width="8" height="24" rx="4" fill="white"/>
  <rect x="104" y="144" width="8" height="24" rx="4" fill="white"/>
  
  <!-- Feet -->
  <ellipse cx="84" cy="176" rx="8" ry="4" fill="#6b7280"/>
  <ellipse cx="108" cy="176" rx="8" ry="4" fill="#6b7280"/>
</svg>